<?xml version="1.0" encoding="UTF-8"?>
<!-- Generator: Adobe Illustrator 20.1.0, SVG Export Plug-In . SVG Version: 6.00 Build 0)  -->
<svg version="1.1" id="Capa_1" xmlns="http://www.w3.org/2000/svg" xmlns:xlink="http://www.w3.org/1999/xlink" x="0px" y="0px" viewBox="0 0 220.9 81.2" style="enable-background:new 0 0 220.9 81.2;" xml:space="preserve">
<style type="text/css">
	.st0{fill:#00AEE6;}
	.st1{fill:#33317E;}
	.st2{opacity:0.33;fill:#33317E;}
</style>
<g>
	<g>
		<path class="st0" d="M80.4,17.3c-1.2,0-2.3-0.2-3.4-0.7c-1-0.5-2-1.1-2.7-1.9c-0.8-0.8-1.4-1.7-1.9-2.7c-0.5-1-0.7-2.2-0.7-3.4    c0-0.8,0.1-1.6,0.3-2.3c0.2-0.7,0.5-1.4,0.9-2.1c0.4-0.6,0.8-1.2,1.4-1.7c0.5-0.5,1.1-1,1.7-1.4c0.6-0.4,1.3-0.7,2.1-0.9    C78.9,0.1,79.6,0,80.4,0c0.6,0,1.2,0.1,1.8,0.2c0.6,0.1,1.2,0.3,1.7,0.5c0.5,0.2,1,0.5,1.5,0.9c0.5,0.3,0.9,0.7,1.3,1.2l0.1,0.1    l-0.5,0.5c-0.2,0.2-0.4,0.3-0.6,0.4C85.5,4,85.2,4,84.9,4c-0.4,0-0.7-0.1-1.1-0.3c-0.5-0.3-1-0.6-1.6-0.8    c-0.6-0.2-1.2-0.3-1.8-0.3c-0.8,0-1.6,0.2-2.3,0.5c-0.7,0.3-1.4,0.7-1.9,1.3c-0.5,0.5-1,1.2-1.3,1.9c-0.3,0.7-0.5,1.5-0.5,2.3    c0,0.8,0.2,1.6,0.5,2.3c0.3,0.7,0.7,1.4,1.3,1.9c0.5,0.5,1.2,1,1.9,1.3c0.7,0.3,1.5,0.5,2.3,0.5c0.6,0,1.3-0.1,1.8-0.3    c0.6-0.2,1.1-0.5,1.6-0.8c0.3-0.2,0.7-0.3,1.1-0.3c0.3,0,0.6,0.1,0.8,0.2c0.2,0.1,0.4,0.2,0.6,0.4l0.5,0.5l-0.1,0.1    c-0.4,0.4-0.8,0.8-1.3,1.2c-0.5,0.3-1,0.6-1.5,0.9c-0.5,0.2-1.1,0.4-1.7,0.5C81.7,17.2,81.1,17.3,80.4,17.3"/>
		<rect x="88.5" y="0.2" class="st0" width="2.6" height="16.9"/>
		<path class="st0" d="M92.9,4.8h2.6v12.3h-2.6V4.8z M92.8,3.7L93,3.4c1.5-2.7,1.6-2.8,1.7-2.9C94.9,0.2,95.4,0,96.1,0h1.7l-2.3,3.1    c-0.3,0.4-0.8,0.6-1.5,0.6H92.8z"/>
		<path class="st0" d="M105.3,17.1V10c0-1-0.2-1.7-0.5-2.3c-0.3-0.5-0.9-0.8-1.6-0.8c-0.4,0-0.9,0.1-1.3,0.2    c-0.4,0.1-0.8,0.2-1.1,0.4c-0.3,0.2-0.5,0.4-0.7,0.6c-0.2,0.2-0.3,0.5-0.3,0.7l0,8.3h-2.6V4.6h2.2l0,0.1c0.1,0.1,0.1,0.2,0.2,0.3    c0,0.1,0.1,0.2,0.1,0.3c0,0.1,0.1,0.3,0.1,0.4c0.1-0.1,0.2-0.2,0.3-0.3c0.3-0.2,0.6-0.4,0.9-0.5c0.3-0.1,0.7-0.3,1-0.3    c0.4-0.1,0.7-0.1,1.1-0.1c0.7,0,1.4,0.1,1.9,0.4c0.6,0.3,1.1,0.6,1.5,1.1c0.4,0.5,0.7,1.1,1,1.8c0.2,0.7,0.3,1.5,0.3,2.3v7.1    H105.3z"/>
		<path class="st0" d="M109.6,4.6h2.6v12.5h-2.6V4.6z M110.9,3.5c-0.2,0-0.5,0-0.7-0.1c-0.2-0.1-0.4-0.2-0.6-0.4    c-0.2-0.2-0.3-0.3-0.4-0.5c-0.1-0.2-0.1-0.4-0.1-0.7c0-0.2,0-0.5,0.1-0.7c0.1-0.2,0.2-0.4,0.4-0.6c0.2-0.2,0.3-0.3,0.6-0.4    c0.2-0.1,0.4-0.1,0.7-0.1c0.2,0,0.5,0,0.7,0.1c0.2,0.1,0.4,0.2,0.6,0.4c0.2,0.2,0.3,0.3,0.4,0.6c0.1,0.2,0.1,0.4,0.1,0.7    c0,0.2,0,0.5-0.1,0.7c-0.1,0.2-0.2,0.4-0.4,0.6c-0.2,0.2-0.3,0.3-0.5,0.4C111.4,3.4,111.2,3.5,110.9,3.5"/>
		<path class="st0" d="M120.3,17.3c-0.9,0-1.7-0.2-2.5-0.5c-0.8-0.3-1.5-0.8-2-1.4c-0.6-0.6-1-1.3-1.4-2c-0.3-0.8-0.5-1.6-0.5-2.5    c0-0.9,0.2-1.7,0.5-2.5c0.3-0.8,0.8-1.5,1.4-2c0.6-0.6,1.3-1,2-1.4c0.8-0.3,1.6-0.5,2.5-0.5c0.9,0,1.8,0.2,2.6,0.6    c0.8,0.4,1.5,0.9,2.1,1.5l0.1,0.1l-0.6,0.6c-0.2,0.2-0.4,0.4-0.6,0.4c-0.2,0.1-0.5,0.1-0.8,0.1c-0.3,0-0.7-0.1-0.9-0.3    c-0.3-0.2-0.6-0.3-0.9-0.4c-0.3-0.1-0.7-0.1-1-0.1c-0.5,0-1,0.1-1.5,0.3c-0.5,0.2-0.9,0.5-1.2,0.8c-0.3,0.3-0.6,0.8-0.8,1.2    c-0.2,0.5-0.3,1-0.3,1.5c0,0.5,0.1,1,0.3,1.5c0.2,0.5,0.5,0.9,0.8,1.2c0.3,0.3,0.8,0.6,1.2,0.8c0.5,0.2,1,0.3,1.5,0.3    c0.3,0,0.7,0,1-0.1c0.3-0.1,0.6-0.2,0.9-0.4c0.3-0.2,0.7-0.3,1-0.3c0.3,0,0.5,0.1,0.7,0.2c0.2,0.1,0.4,0.2,0.6,0.4l0.6,0.6    l-0.1,0.1c-0.6,0.6-1.3,1.1-2.1,1.5C122.1,17.1,121.2,17.3,120.3,17.3"/>
		<path class="st0" d="M130.7,17.3c-0.6,0-1.2-0.1-1.7-0.3c-0.5-0.2-1-0.4-1.4-0.8c-0.4-0.3-0.7-0.7-0.9-1.2c-0.2-0.5-0.3-1-0.3-1.6    c0-0.6,0.1-1.2,0.4-1.7c0.2-0.5,0.6-0.9,1.1-1.3c0.5-0.4,1.1-0.6,1.8-0.8c0.7-0.2,1.6-0.3,2.5-0.3c0.3,0,0.5,0,0.8,0    c0.2,0,0.5,0,0.7,0c0.2,0,0.4,0,0.5,0c0,0,0,0,0,0c0-0.5-0.1-0.9-0.2-1.2c-0.1-0.3-0.3-0.6-0.5-0.8c-0.2-0.2-0.4-0.3-0.7-0.4    C132.4,7,132.1,7,131.8,7c-0.4,0-0.6,0-0.8,0.1c-0.2,0.1-0.4,0.1-0.5,0.2c-0.2,0.1-0.3,0.2-0.5,0.2c-0.2,0.1-0.4,0.1-0.7,0.1    c-0.2,0-0.4,0-0.6-0.1c-0.2-0.1-0.4-0.2-0.6-0.3l-0.8-0.6l0.1-0.1c0.1-0.1,0.2-0.2,0.3-0.4c0.1-0.1,0.2-0.2,0.4-0.3    c0.1-0.1,0.3-0.3,0.5-0.4c0.5-0.3,1-0.5,1.5-0.7c0.5-0.2,1.2-0.2,1.8-0.2c0.7,0,1.3,0.1,1.8,0.3c0.5,0.2,1,0.4,1.3,0.7    c0.4,0.3,0.7,0.7,0.9,1.1c0.2,0.4,0.4,0.9,0.5,1.3c0.1,0.5,0.2,1,0.3,1.5c0,0.5,0.1,1.1,0.1,1.6v6.2h-2.1l0-0.1    c-0.1-0.1-0.2-0.3-0.3-0.5c-0.1-0.2-0.1-0.3-0.1-0.5c-0.2,0.1-0.3,0.3-0.5,0.4c-0.3,0.2-0.6,0.3-1,0.5c-0.3,0.1-0.7,0.2-1,0.3    C131.3,17.3,130.9,17.3,130.7,17.3 M132.2,11.9c-0.5,0-0.9,0-1.3,0.1c-0.4,0.1-0.7,0.2-1,0.3c-0.3,0.1-0.5,0.3-0.7,0.5    c-0.2,0.2-0.2,0.4-0.2,0.7c0,0.2,0,0.4,0.1,0.6c0.1,0.2,0.2,0.3,0.3,0.4c0.2,0.1,0.3,0.2,0.5,0.2c0.2,0.1,0.5,0.1,0.7,0.1    c0.3,0,0.5,0,0.8-0.1c0.3-0.1,0.6-0.1,0.9-0.2c0.3-0.1,0.6-0.2,0.9-0.3c0.3-0.1,0.5-0.3,0.8-0.4v-1.8c0,0-0.6,0-0.6,0    c-0.2,0-0.4,0-0.7,0C132.7,11.9,132.4,11.9,132.2,11.9"/>
		<path class="st0" d="M148.2,17.3c-0.9,0-1.7-0.2-2.5-0.5c-0.8-0.3-1.4-0.8-2-1.4c-0.5-0.6-1-1.3-1.3-2c-0.3-0.8-0.5-1.6-0.5-2.5    c0-0.9,0.2-1.7,0.5-2.5c0.3-0.8,0.7-1.5,1.3-2c0.5-0.6,1.2-1,2-1.4c0.8-0.3,1.6-0.5,2.5-0.5c0.3,0,0.6,0,0.8,0.1    c0.3,0,0.6,0.1,0.9,0.2c0.3,0.1,0.6,0.2,0.8,0.4c0.2,0.1,0.3,0.2,0.5,0.4V0.2h2.6v16.9h-2.2l0-0.1c-0.1-0.1-0.1-0.2-0.2-0.3    c0-0.1-0.1-0.2-0.1-0.3c0-0.1,0-0.1,0-0.2c-0.2,0.1-0.3,0.3-0.5,0.4c-0.3,0.2-0.5,0.3-0.8,0.4c-0.3,0.1-0.6,0.2-0.9,0.2    C148.8,17.3,148.5,17.3,148.2,17.3 M148.2,7c-0.5,0-1,0.1-1.5,0.3c-0.4,0.2-0.8,0.5-1.1,0.8c-0.3,0.3-0.6,0.8-0.8,1.2    c-0.2,0.5-0.3,1-0.3,1.5c0,0.5,0.1,1,0.3,1.5c0.2,0.5,0.4,0.9,0.8,1.2c0.3,0.3,0.7,0.6,1.1,0.8c0.4,0.2,0.9,0.3,1.5,0.3    c0.6,0,1.1-0.1,1.7-0.3c0.5-0.2,1-0.5,1.3-0.9V8.3c-0.4-0.4-0.8-0.7-1.3-0.9C149.4,7.1,148.8,7,148.2,7"/>
		<path class="st0" d="M162,17.3c-0.9,0-1.7-0.2-2.5-0.5c-0.8-0.3-1.5-0.8-2-1.4c-0.6-0.6-1-1.3-1.4-2c-0.3-0.8-0.5-1.6-0.5-2.5    c0-0.9,0.2-1.7,0.5-2.5c0.3-0.8,0.8-1.5,1.4-2c0.6-0.6,1.3-1,2-1.4c0.8-0.3,1.6-0.5,2.5-0.5c0.7,0,1.4,0.1,2.1,0.4    c0.7,0.2,1.3,0.6,1.8,1c0.5,0.4,1,0.9,1.4,1.5c0.4,0.6,0.7,1.2,0.9,1.9c0,0.1,0,0.2,0,0.3c0,0.1,0,0.2,0,0.3    c0,0.3-0.1,0.6-0.2,0.8c-0.1,0.2-0.3,0.4-0.4,0.6c-0.2,0.2-0.4,0.3-0.6,0.4c-0.2,0.1-0.4,0.1-0.6,0.1h-8.3    c0.1,0.4,0.2,0.7,0.4,1.1c0.2,0.4,0.5,0.7,0.9,1c0.3,0.3,0.7,0.5,1.2,0.7c0.4,0.2,0.9,0.2,1.3,0.2c0.3,0,0.7,0,1-0.1    c0.3-0.1,0.6-0.2,0.9-0.4c0.2-0.1,0.3-0.2,0.5-0.2c0.2,0,0.3-0.1,0.5-0.1c0.3,0,0.5,0.1,0.7,0.2c0.2,0.1,0.4,0.2,0.6,0.4l0.6,0.6    l-0.1,0.1c-0.6,0.6-1.3,1.1-2.1,1.5C163.8,17.1,162.9,17.3,162,17.3 M162,7c-0.4,0-0.9,0.1-1.3,0.2c-0.4,0.1-0.8,0.3-1.1,0.6    c-0.3,0.2-0.6,0.5-0.8,0.9c-0.1,0.2-0.2,0.4-0.3,0.6c0.1,0,0.2-0.1,0.4-0.1h6.6c-0.1-0.3-0.3-0.5-0.5-0.7    c-0.2-0.3-0.5-0.5-0.8-0.8c-0.3-0.2-0.6-0.4-1-0.5C162.7,7.1,162.3,7,162,7"/>
	</g>
	<g>
		<polygon class="st1" points="71.8,38.7 71.8,21.7 82.4,21.7 82.4,24.4 74.4,24.4 74.4,28.8 80.9,28.8 80.9,31.5 74.4,31.5     74.4,36.1 82.4,36.1 82.4,38.7   "/>
		<path class="st1" d="M88.3,38.9c-0.4,0-0.9-0.1-1.3-0.2c-0.4-0.1-0.8-0.3-1.2-0.5c-0.4-0.2-0.7-0.5-1-0.8    c-0.3-0.3-0.5-0.7-0.7-1.1l-0.1-0.1l0.8-0.4c0.2-0.1,0.3-0.1,0.5-0.2c0.2-0.1,0.3-0.1,0.5-0.1c0.2,0,0.4,0,0.6,0.1    c0.2,0.1,0.4,0.2,0.7,0.4c0.2,0.1,0.3,0.2,0.5,0.2c0.2,0.1,0.4,0.1,0.6,0.1c0.2,0,0.4,0,0.7-0.1c0.2-0.1,0.4-0.2,0.6-0.3    c0.2-0.1,0.3-0.3,0.4-0.5c0.1-0.2,0.2-0.4,0.2-0.6c0-0.2,0-0.4-0.1-0.5c-0.1-0.1-0.2-0.2-0.3-0.4c-0.2-0.1-0.4-0.2-0.6-0.4    c-0.3-0.1-0.6-0.2-1-0.4c-0.4-0.1-0.9-0.3-1.3-0.5c-0.4-0.2-0.8-0.4-1.1-0.7c-0.3-0.3-0.6-0.6-0.8-1c-0.2-0.4-0.3-0.9-0.3-1.5    c0-0.5,0.1-1,0.3-1.4c0.2-0.4,0.5-0.8,0.9-1.1c0.4-0.3,0.8-0.5,1.2-0.7c0.5-0.2,0.9-0.3,1.4-0.3c0.5,0,1,0.1,1.4,0.3    c0.4,0.2,0.8,0.4,1,0.6c0.3,0.2,0.5,0.4,0.7,0.6c0,0,0.3,0.3,0.3,0.4l0.1,0.1l-0.7,0.6C90.9,28.9,90.5,29,90,29    c-0.2,0-0.4,0-0.6-0.1c-0.2-0.1-0.4-0.2-0.6-0.3c-0.1-0.1-0.3-0.1-0.4-0.1c-0.3,0-0.5,0-0.7,0.1c-0.2,0.1-0.3,0.2-0.4,0.3    c-0.1,0.1-0.2,0.2-0.2,0.3c0,0.1-0.1,0.2-0.1,0.2c0,0.2,0,0.3,0.1,0.5c0.1,0.1,0.2,0.3,0.4,0.4c0.2,0.1,0.4,0.2,0.6,0.3    c0.2,0.1,0.5,0.2,0.7,0.2c0.5,0.2,0.9,0.3,1.4,0.5c0.4,0.2,0.8,0.5,1.2,0.8c0.4,0.3,0.6,0.7,0.8,1.1c0.2,0.4,0.3,1,0.3,1.6    c0,0.5-0.1,1.1-0.3,1.6c-0.2,0.5-0.5,0.9-0.9,1.3C91,38,90.5,38.3,90,38.5C89.5,38.8,88.9,38.9,88.3,38.9"/>
		<path class="st1" d="M94.3,42.6V26.2h2.2l0,0.1c0.1,0.1,0.1,0.2,0.2,0.3c0,0.1,0.1,0.2,0.1,0.3c0,0.1,0,0.1,0,0.2    c0.1-0.1,0.3-0.3,0.4-0.4c0.2-0.1,0.4-0.2,0.7-0.3c0.2-0.1,0.5-0.2,0.7-0.2c0.2-0.1,0.5-0.1,0.7-0.1c0.2,0,0.4,0,0.6,0    c0.9,0,1.7,0.2,2.5,0.5c0.8,0.3,1.4,0.8,2,1.4c0.5,0.6,1,1.3,1.3,2c0.3,0.8,0.5,1.6,0.5,2.5c0,0.9-0.2,1.7-0.5,2.5    c-0.3,0.8-0.7,1.5-1.3,2c-0.6,0.6-1.2,1-2,1.4c-0.8,0.3-1.6,0.5-2.5,0.5c-0.3,0-0.6,0-0.8-0.1c-0.3,0-0.6-0.1-0.8-0.2    c-0.3-0.1-0.6-0.2-0.8-0.4c-0.2-0.1-0.3-0.2-0.5-0.4v4.8H94.3z M96.9,35.1c0.4,0.4,0.8,0.7,1.3,0.9c0.5,0.2,1.1,0.3,1.7,0.3    c0.5,0,1-0.1,1.5-0.3c0.4-0.2,0.8-0.5,1.1-0.8c0.3-0.3,0.6-0.8,0.7-1.2c0.2-0.5,0.3-1,0.3-1.5c0-0.5-0.1-1-0.3-1.5    c-0.2-0.5-0.4-0.9-0.7-1.2c-0.3-0.3-0.7-0.6-1.1-0.8c-0.4-0.2-0.9-0.3-1.5-0.3c-0.6,0-1.1,0.1-1.7,0.3c-0.5,0.2-1,0.5-1.3,0.9    V35.1z"/>
		<path class="st1" d="M114.2,38.9c-0.9,0-1.7-0.2-2.5-0.5c-0.8-0.3-1.5-0.8-2-1.4c-0.6-0.6-1-1.3-1.4-2c-0.3-0.8-0.5-1.6-0.5-2.5    c0-0.9,0.2-1.7,0.5-2.5c0.3-0.8,0.8-1.5,1.4-2c0.6-0.6,1.3-1,2-1.4c0.8-0.3,1.6-0.5,2.5-0.5c0.7,0,1.4,0.1,2.1,0.4    c0.7,0.2,1.3,0.6,1.8,1c0.5,0.4,1,0.9,1.4,1.5c0.4,0.6,0.7,1.2,0.9,1.9c0,0.1,0,0.2,0,0.3c0,0.1,0,0.2,0,0.3    c0,0.3-0.1,0.6-0.2,0.8c-0.1,0.2-0.3,0.4-0.4,0.6c-0.2,0.2-0.4,0.3-0.6,0.4c-0.2,0.1-0.4,0.1-0.6,0.1h-8.3    c0.1,0.4,0.2,0.7,0.4,1.1c0.2,0.4,0.5,0.7,0.9,1c0.3,0.3,0.7,0.5,1.2,0.7c0.4,0.2,0.9,0.2,1.3,0.2c0.3,0,0.7,0,1-0.1    c0.3-0.1,0.6-0.2,0.9-0.4c0.2-0.1,0.3-0.2,0.5-0.2c0.2,0,0.3-0.1,0.5-0.1c0.3,0,0.5,0.1,0.7,0.2c0.2,0.1,0.4,0.2,0.6,0.4l0.6,0.6    l-0.1,0.1c-0.6,0.6-1.3,1.1-2.1,1.5C116,38.7,115.1,38.9,114.2,38.9 M114.2,28.6c-0.4,0-0.9,0.1-1.3,0.2c-0.4,0.1-0.8,0.3-1.1,0.6    c-0.3,0.2-0.6,0.5-0.8,0.9c-0.1,0.2-0.2,0.4-0.3,0.6c0.1,0,0.2-0.1,0.4-0.1h6.6c-0.1-0.3-0.3-0.5-0.5-0.7    c-0.2-0.3-0.5-0.5-0.8-0.8c-0.3-0.2-0.6-0.4-1-0.5C115,28.6,114.6,28.6,114.2,28.6"/>
		<path class="st1" d="M128.5,38.9c-0.9,0-1.7-0.2-2.5-0.5c-0.8-0.3-1.5-0.8-2-1.4c-0.6-0.6-1-1.3-1.4-2c-0.3-0.8-0.5-1.6-0.5-2.5    c0-0.9,0.2-1.7,0.5-2.5c0.3-0.8,0.8-1.5,1.4-2c0.6-0.6,1.3-1,2-1.4c0.8-0.3,1.6-0.5,2.5-0.5c0.9,0,1.8,0.2,2.6,0.6    c0.8,0.4,1.5,0.9,2.1,1.5l0.1,0.1l-0.6,0.6c-0.2,0.2-0.4,0.4-0.6,0.4c-0.2,0.1-0.5,0.1-0.8,0.1c-0.3,0-0.7-0.1-0.9-0.3    c-0.3-0.2-0.6-0.3-0.9-0.4c-0.3-0.1-0.7-0.1-1-0.1c-0.5,0-1,0.1-1.5,0.3c-0.5,0.2-0.9,0.5-1.2,0.8c-0.3,0.3-0.6,0.8-0.8,1.2    c-0.2,0.5-0.3,1-0.3,1.5c0,0.5,0.1,1,0.3,1.5c0.2,0.5,0.5,0.9,0.8,1.2c0.3,0.3,0.8,0.6,1.2,0.8c0.5,0.2,1,0.3,1.5,0.3    c0.3,0,0.7,0,1-0.1c0.3-0.1,0.6-0.2,0.9-0.4c0.3-0.2,0.7-0.3,1-0.3c0.3,0,0.5,0.1,0.7,0.2c0.2,0.1,0.4,0.2,0.6,0.4l0.6,0.6    l-0.1,0.1c-0.6,0.6-1.3,1.1-2.1,1.5C130.3,38.7,129.4,38.9,128.5,38.9"/>
		<path class="st1" d="M135,26.2h2.6v12.5H135V26.2z M136.3,25c-0.2,0-0.5,0-0.7-0.1c-0.2-0.1-0.4-0.2-0.6-0.4    c-0.2-0.2-0.3-0.3-0.4-0.5c-0.1-0.2-0.1-0.4-0.1-0.7c0-0.2,0-0.5,0.1-0.7c0.1-0.2,0.2-0.4,0.4-0.6c0.2-0.2,0.3-0.3,0.6-0.4    c0.2-0.1,0.4-0.1,0.7-0.1c0.2,0,0.5,0,0.7,0.1c0.2,0.1,0.4,0.2,0.6,0.4c0.2,0.2,0.3,0.3,0.4,0.6c0.1,0.2,0.1,0.4,0.1,0.7    c0,0.2,0,0.5-0.1,0.7c-0.1,0.2-0.2,0.4-0.4,0.6c-0.2,0.2-0.3,0.3-0.6,0.4C136.8,25,136.5,25,136.3,25"/>
		<path class="st1" d="M143.5,38.9c-0.6,0-1.2-0.1-1.7-0.3c-0.5-0.2-1-0.4-1.4-0.8c-0.4-0.3-0.7-0.7-0.9-1.2c-0.2-0.5-0.3-1-0.3-1.6    c0-0.6,0.1-1.2,0.4-1.7c0.2-0.5,0.6-0.9,1.1-1.3c0.5-0.4,1.1-0.6,1.8-0.8c0.7-0.2,1.6-0.3,2.5-0.3c0.3,0,0.5,0,0.8,0    c0.2,0,0.5,0,0.7,0c0.2,0,0.4,0,0.5,0c0,0,0,0,0,0c0-0.5-0.1-0.9-0.2-1.2c-0.1-0.3-0.3-0.6-0.5-0.8c-0.2-0.2-0.4-0.3-0.7-0.4    c-0.3-0.1-0.6-0.1-0.8-0.1c-0.4,0-0.6,0-0.8,0.1c-0.2,0.1-0.4,0.1-0.5,0.2c-0.2,0.1-0.3,0.2-0.5,0.2c-0.2,0.1-0.4,0.1-0.7,0.1    c-0.2,0-0.4,0-0.6-0.1c-0.2-0.1-0.4-0.2-0.6-0.3l-0.8-0.6l0.1-0.1c0.1-0.1,0.2-0.2,0.3-0.4c0.1-0.1,0.2-0.2,0.4-0.3    c0.1-0.1,0.3-0.2,0.5-0.4c0.5-0.3,1-0.5,1.5-0.7c0.5-0.2,1.2-0.2,1.8-0.2c0.7,0,1.3,0.1,1.8,0.3c0.5,0.2,1,0.4,1.3,0.7    c0.4,0.3,0.7,0.7,0.9,1.1c0.2,0.4,0.4,0.9,0.5,1.3c0.1,0.5,0.2,1,0.3,1.5c0,0.5,0.1,1,0.1,1.6v6.2h-2.1l0-0.1    c-0.1-0.1-0.2-0.3-0.3-0.5c-0.1-0.2-0.1-0.4-0.1-0.5c-0.2,0.1-0.3,0.3-0.5,0.4c-0.3,0.2-0.6,0.3-1,0.5c-0.3,0.1-0.7,0.2-1,0.3    C144.1,38.8,143.8,38.9,143.5,38.9 M145,33.4c-0.5,0-0.9,0-1.3,0.1c-0.4,0.1-0.7,0.2-1,0.3c-0.3,0.1-0.5,0.3-0.7,0.5    c-0.2,0.2-0.2,0.4-0.2,0.7c0,0.2,0,0.4,0.1,0.6c0.1,0.2,0.2,0.3,0.3,0.4c0.2,0.1,0.3,0.2,0.5,0.2c0.2,0.1,0.5,0.1,0.7,0.1    c0.3,0,0.5,0,0.8-0.1c0.3-0.1,0.6-0.1,0.9-0.2c0.3-0.1,0.6-0.2,0.9-0.3c0.3-0.1,0.5-0.3,0.8-0.4v-1.8c0,0-0.6,0-0.6,0    c-0.2,0-0.4,0-0.7,0C145.5,33.4,145.3,33.4,145,33.4"/>
		<rect x="151.2" y="21.7" class="st1" width="2.6" height="16.9"/>
		<path class="st1" d="M155.5,26.2h2.6v12.5h-2.6V26.2z M156.8,25c-0.2,0-0.5,0-0.7-0.1c-0.2-0.1-0.4-0.2-0.6-0.4    c-0.2-0.2-0.3-0.3-0.4-0.5c-0.1-0.2-0.1-0.4-0.1-0.7c0-0.2,0-0.5,0.1-0.7c0.1-0.2,0.2-0.4,0.4-0.6c0.2-0.2,0.3-0.3,0.6-0.4    c0.2-0.1,0.4-0.1,0.7-0.1s0.5,0,0.7,0.1c0.2,0.1,0.4,0.2,0.6,0.4c0.2,0.2,0.3,0.3,0.4,0.6c0.1,0.2,0.1,0.4,0.1,0.7    c0,0.2,0,0.5-0.1,0.7c-0.1,0.2-0.2,0.4-0.4,0.5c-0.2,0.2-0.3,0.3-0.6,0.4C157.3,25,157.1,25,156.8,25"/>
		<path class="st1" d="M166,38.9c-0.9,0-1.7-0.2-2.5-0.5c-0.8-0.3-1.4-0.8-2-1.4c-0.5-0.6-1-1.3-1.3-2c-0.3-0.8-0.5-1.6-0.5-2.5    c0-0.9,0.2-1.7,0.5-2.5c0.3-0.8,0.7-1.5,1.3-2c0.6-0.6,1.2-1,2-1.4c0.8-0.3,1.6-0.5,2.5-0.5c0.3,0,0.5,0,0.8,0.1    c0.3,0,0.6,0.1,0.9,0.2c0.3,0.1,0.6,0.2,0.8,0.4c0.2,0.1,0.3,0.2,0.5,0.4v-5.3h2.6v17h-2.2l0-0.1c-0.1-0.1-0.1-0.2-0.2-0.3    c0-0.1-0.1-0.2-0.1-0.3c0-0.1,0-0.1,0-0.2c-0.2,0.1-0.3,0.3-0.5,0.4c-0.3,0.2-0.5,0.3-0.8,0.4c-0.3,0.1-0.6,0.2-0.9,0.2    C166.5,38.9,166.2,38.9,166,38.9 M166,28.6c-0.5,0-1,0.1-1.5,0.3c-0.4,0.2-0.8,0.5-1.1,0.8c-0.3,0.3-0.6,0.8-0.7,1.2    c-0.2,0.5-0.3,1-0.3,1.5c0,0.5,0.1,1,0.3,1.5c0.2,0.5,0.4,0.9,0.7,1.2c0.3,0.3,0.7,0.6,1.1,0.8c0.4,0.2,0.9,0.3,1.5,0.3    c0.6,0,1.1-0.1,1.7-0.3c0.5-0.2,1-0.5,1.3-0.9v-5.3c-0.4-0.4-0.8-0.7-1.3-0.9C167.1,28.7,166.6,28.6,166,28.6"/>
		<path class="st1" d="M177.6,38.9c-0.6,0-1.2-0.1-1.7-0.3c-0.5-0.2-1-0.4-1.4-0.8c-0.4-0.3-0.7-0.7-0.9-1.2c-0.2-0.5-0.3-1-0.3-1.6    c0-0.6,0.1-1.2,0.4-1.7c0.2-0.5,0.6-0.9,1.1-1.3c0.5-0.4,1.1-0.6,1.8-0.8c0.7-0.2,1.6-0.3,2.5-0.3c0.3,0,0.5,0,0.8,0    c0.2,0,0.5,0,0.7,0c0.2,0,0.4,0,0.5,0c0,0,0,0,0,0c0-0.5-0.1-0.9-0.2-1.2c-0.1-0.3-0.3-0.6-0.5-0.8c-0.2-0.2-0.4-0.3-0.7-0.4    c-0.3-0.1-0.6-0.1-0.8-0.1c-0.4,0-0.6,0-0.8,0.1c-0.2,0.1-0.4,0.1-0.5,0.2c-0.2,0.1-0.3,0.2-0.5,0.2c-0.2,0.1-0.4,0.1-0.7,0.1    c-0.2,0-0.4,0-0.6-0.1c-0.2-0.1-0.4-0.2-0.6-0.3l-0.8-0.6l0.1-0.1c0.1-0.1,0.2-0.2,0.3-0.4c0.1-0.1,0.2-0.2,0.4-0.3    c0.1-0.1,0.3-0.3,0.5-0.4c0.5-0.3,1-0.5,1.5-0.7c0.5-0.2,1.2-0.2,1.8-0.2c0.7,0,1.3,0.1,1.8,0.3c0.5,0.2,1,0.4,1.3,0.7    c0.4,0.3,0.7,0.7,0.9,1.1c0.2,0.4,0.4,0.9,0.5,1.3c0.1,0.5,0.2,1,0.3,1.5c0,0.5,0.1,1,0.1,1.6v6.2h-2.1l0-0.1    c-0.1-0.1-0.2-0.3-0.3-0.5c-0.1-0.2-0.1-0.4-0.1-0.5c-0.2,0.1-0.3,0.3-0.5,0.4c-0.3,0.2-0.6,0.3-1,0.5c-0.3,0.1-0.7,0.2-1,0.3    C178.2,38.8,177.8,38.9,177.6,38.9 M179.1,33.4c-0.5,0-0.9,0-1.3,0.1c-0.4,0.1-0.7,0.2-1,0.3c-0.3,0.1-0.5,0.3-0.7,0.5    c-0.2,0.2-0.2,0.4-0.2,0.7c0,0.2,0,0.4,0.1,0.6c0.1,0.2,0.2,0.3,0.3,0.4c0.2,0.1,0.3,0.2,0.5,0.2c0.2,0.1,0.5,0.1,0.7,0.1    c0.3,0,0.5,0,0.8-0.1c0.3-0.1,0.6-0.1,0.9-0.2c0.3-0.1,0.6-0.2,0.9-0.3c0.3-0.1,0.5-0.3,0.8-0.4v-1.8c0,0-0.6,0-0.6,0    c-0.2,0-0.4,0-0.7,0C179.6,33.4,179.3,33.4,179.1,33.4"/>
		<path class="st1" d="M191.4,38.9c-0.9,0-1.7-0.2-2.5-0.5c-0.8-0.3-1.4-0.8-2-1.4c-0.5-0.6-1-1.3-1.3-2c-0.3-0.8-0.5-1.6-0.5-2.5    c0-0.9,0.2-1.7,0.5-2.5c0.3-0.8,0.7-1.5,1.3-2c0.6-0.6,1.2-1,2-1.4c0.8-0.3,1.6-0.5,2.5-0.5c0.3,0,0.5,0,0.8,0.1    c0.3,0,0.6,0.1,0.9,0.2c0.3,0.1,0.6,0.2,0.8,0.4c0.2,0.1,0.3,0.2,0.5,0.4v-5.3h2.6v17h-2.2l0-0.1c-0.1-0.1-0.1-0.2-0.2-0.3    c0-0.1-0.1-0.2-0.1-0.3c0-0.1,0-0.1,0-0.2c-0.2,0.1-0.3,0.3-0.5,0.4c-0.3,0.2-0.5,0.3-0.8,0.4c-0.3,0.1-0.6,0.2-0.9,0.2    C192,38.9,191.7,38.9,191.4,38.9 M191.4,28.6c-0.5,0-1,0.1-1.5,0.3c-0.4,0.2-0.8,0.5-1.1,0.8c-0.3,0.3-0.6,0.8-0.7,1.2    c-0.2,0.5-0.3,1-0.3,1.5c0,0.5,0.1,1,0.3,1.5c0.2,0.5,0.4,0.9,0.7,1.2c0.3,0.3,0.7,0.6,1.1,0.8c0.4,0.2,0.9,0.3,1.5,0.3    c0.6,0,1.1-0.1,1.7-0.3c0.5-0.2,1-0.5,1.3-0.9v-5.3c-0.4-0.4-0.8-0.7-1.3-0.9C192.6,28.7,192,28.6,191.4,28.6"/>
		<path class="st1" d="M205.2,38.9c-0.9,0-1.7-0.2-2.5-0.5c-0.8-0.3-1.5-0.8-2-1.4c-0.6-0.6-1-1.3-1.4-2c-0.3-0.8-0.5-1.6-0.5-2.5    c0-0.9,0.2-1.7,0.5-2.5c0.3-0.8,0.8-1.5,1.4-2c0.6-0.6,1.3-1,2-1.4c0.8-0.3,1.6-0.5,2.5-0.5c0.7,0,1.4,0.1,2.1,0.4    c0.7,0.2,1.3,0.6,1.8,1c0.5,0.4,1,0.9,1.4,1.5c0.4,0.6,0.7,1.2,0.9,1.9c0,0.1,0,0.2,0,0.3c0,0.1,0,0.2,0,0.3    c0,0.3-0.1,0.6-0.2,0.8c-0.1,0.2-0.3,0.4-0.4,0.6c-0.2,0.2-0.4,0.3-0.6,0.4c-0.2,0.1-0.4,0.1-0.6,0.1h-8.3    c0.1,0.4,0.2,0.7,0.4,1.1c0.2,0.4,0.5,0.7,0.9,1c0.3,0.3,0.7,0.5,1.2,0.7c0.4,0.2,0.9,0.2,1.3,0.2c0.3,0,0.7,0,1-0.1    c0.3-0.1,0.6-0.2,0.9-0.4c0.2-0.1,0.3-0.2,0.5-0.2c0.2,0,0.3-0.1,0.5-0.1c0.3,0,0.5,0.1,0.7,0.2c0.2,0.1,0.4,0.2,0.6,0.4l0.6,0.6    l-0.1,0.1c-0.6,0.6-1.3,1.1-2.1,1.5C207,38.7,206.1,38.9,205.2,38.9 M205.2,28.6c-0.4,0-0.9,0.1-1.3,0.2c-0.4,0.1-0.8,0.3-1.1,0.6    c-0.3,0.2-0.6,0.5-0.8,0.9c-0.1,0.2-0.2,0.4-0.3,0.6c0.1,0,0.2-0.1,0.4-0.1h6.6c-0.1-0.3-0.3-0.5-0.5-0.7    c-0.2-0.3-0.5-0.5-0.8-0.8c-0.3-0.2-0.6-0.4-1-0.5C206,28.6,205.6,28.6,205.2,28.6"/>
		<path class="st1" d="M216.6,38.9c-0.4,0-0.9-0.1-1.3-0.2c-0.4-0.1-0.8-0.3-1.2-0.5c-0.4-0.2-0.7-0.5-1-0.8    c-0.3-0.3-0.5-0.7-0.7-1.1l-0.1-0.1l0.8-0.4c0.2-0.1,0.3-0.1,0.5-0.2c0.2-0.1,0.3-0.1,0.5-0.1c0.2,0,0.4,0,0.6,0.1    c0.2,0.1,0.4,0.2,0.7,0.4c0.2,0.1,0.3,0.2,0.5,0.2c0.2,0.1,0.4,0.1,0.6,0.1c0.2,0,0.4,0,0.7-0.1c0.2-0.1,0.4-0.2,0.6-0.3    c0.2-0.1,0.3-0.3,0.4-0.5c0.1-0.2,0.2-0.4,0.2-0.6c0-0.2,0-0.4-0.1-0.5c-0.1-0.1-0.2-0.2-0.3-0.4c-0.1-0.1-0.4-0.2-0.6-0.4    c-0.3-0.1-0.6-0.2-1-0.4c-0.4-0.1-0.9-0.3-1.3-0.5c-0.4-0.2-0.8-0.4-1.1-0.7c-0.3-0.3-0.6-0.6-0.8-1c-0.2-0.4-0.3-0.9-0.3-1.5    c0-0.5,0.1-1,0.3-1.4c0.2-0.4,0.5-0.8,0.9-1.1c0.4-0.3,0.8-0.5,1.2-0.7c0.5-0.2,0.9-0.3,1.4-0.3c0.5,0,1,0.1,1.4,0.3    c0.4,0.2,0.7,0.4,1,0.6c0.3,0.2,0.5,0.4,0.7,0.6l0.4,0.5l-0.7,0.6c-0.4,0.3-0.8,0.5-1.2,0.5c-0.2,0-0.4,0-0.6-0.1    c-0.2-0.1-0.4-0.2-0.6-0.3c-0.1-0.1-0.3-0.1-0.4-0.1c-0.3,0-0.5,0-0.7,0.1c-0.2,0.1-0.3,0.2-0.4,0.3c-0.1,0.1-0.2,0.2-0.2,0.3    c0,0.1-0.1,0.2-0.1,0.3c0,0.2,0,0.3,0.1,0.5c0.1,0.1,0.2,0.3,0.4,0.4c0.2,0.1,0.4,0.2,0.6,0.3c0.2,0.1,0.5,0.2,0.7,0.2    c0.5,0.2,0.9,0.3,1.4,0.5c0.4,0.2,0.8,0.5,1.2,0.8c0.4,0.3,0.6,0.7,0.8,1.1c0.2,0.4,0.3,1,0.3,1.6c0,0.5-0.1,1.1-0.3,1.6    c-0.2,0.5-0.5,0.9-0.9,1.3c-0.4,0.4-0.8,0.7-1.4,0.9C217.8,38.8,217.2,38.9,216.6,38.9"/>
	</g>
	<g>
		<path class="st1" d="M87.4,60.1V47.9l-5.3,12.2h-2.5L74.4,48v12.1h-2.6V43.1h2.1c0.4,0,0.8,0.1,1.1,0.3c0.3,0.2,0.6,0.5,0.7,0.8    l5.2,11.9c0,0.1,0,0.1,0.1,0.2c0-0.1,0-0.1,0.1-0.2l5.2-11.9c0.2-0.4,0.4-0.7,0.7-0.9c0.3-0.2,0.7-0.3,1.1-0.3h2.1v16.9H87.4z"/>
		<path class="st1" d="M98.1,60.2c-0.9,0-1.7-0.2-2.5-0.5c-0.8-0.3-1.5-0.8-2-1.4c-0.6-0.6-1-1.3-1.4-2c-0.3-0.8-0.5-1.6-0.5-2.5    c0-0.9,0.2-1.7,0.5-2.5c0.3-0.8,0.8-1.5,1.4-2c0.6-0.6,1.3-1,2-1.4c0.8-0.3,1.6-0.5,2.5-0.5c0.7,0,1.4,0.1,2.1,0.4    c0.7,0.2,1.3,0.6,1.8,1c0.5,0.4,1,0.9,1.4,1.5c0.4,0.6,0.7,1.2,0.9,1.9c0,0.1,0,0.2,0,0.3c0,0.1,0,0.2,0,0.3    c0,0.3-0.1,0.6-0.2,0.8c-0.1,0.2-0.3,0.4-0.4,0.6c-0.2,0.2-0.4,0.3-0.6,0.4c-0.2,0.1-0.4,0.1-0.6,0.1h-8.3    c0.1,0.4,0.2,0.7,0.4,1.1c0.2,0.4,0.5,0.7,0.9,1c0.3,0.3,0.7,0.5,1.2,0.7c0.4,0.2,0.9,0.2,1.3,0.2c0.3,0,0.7,0,1-0.1    c0.3-0.1,0.6-0.2,0.9-0.4c0.2-0.1,0.3-0.2,0.5-0.2c0.2,0,0.3-0.1,0.5-0.1c0.3,0,0.5,0.1,0.7,0.2c0.2,0.1,0.4,0.2,0.6,0.4l0.6,0.6    l-0.1,0.1c-0.6,0.6-1.3,1.1-2.1,1.5C100,60,99.1,60.2,98.1,60.2 M98.1,49.9c-0.4,0-0.9,0.1-1.3,0.2c-0.4,0.1-0.8,0.3-1.1,0.6    c-0.3,0.2-0.6,0.5-0.8,0.9c-0.1,0.2-0.2,0.4-0.3,0.6c0.1,0,0.2-0.1,0.4-0.1h6.6c-0.1-0.3-0.3-0.5-0.5-0.7    c-0.2-0.3-0.5-0.5-0.8-0.8c-0.3-0.2-0.6-0.4-1-0.5C98.9,50,98.5,49.9,98.1,49.9 M96.9,46.6l0.1-0.2c1.5-2.7,1.6-2.8,1.7-2.9    c0.3-0.4,0.8-0.6,1.5-0.6h1.7L99.5,46c-0.3,0.4-0.8,0.6-1.5,0.6H96.9z"/>
		<path class="st1" d="M112.2,60.2c-0.9,0-1.7-0.2-2.5-0.5c-0.8-0.3-1.4-0.8-2-1.4c-0.5-0.6-1-1.3-1.3-2c-0.3-0.8-0.5-1.6-0.5-2.5    c0-0.9,0.2-1.7,0.5-2.5c0.3-0.8,0.7-1.5,1.3-2c0.6-0.6,1.2-1,2-1.4c0.8-0.3,1.6-0.5,2.5-0.5c0.3,0,0.5,0,0.8,0.1    c0.3,0,0.6,0.1,0.9,0.2c0.3,0.1,0.6,0.2,0.8,0.4c0.2,0.1,0.3,0.2,0.5,0.4v-5.3h2.6v16.9h-2.2l0-0.1c-0.1-0.1-0.1-0.2-0.2-0.3    c0-0.1-0.1-0.2-0.1-0.3c0-0.1,0-0.1,0-0.2c-0.2,0.1-0.3,0.3-0.5,0.4c-0.3,0.2-0.5,0.3-0.8,0.4c-0.3,0.1-0.6,0.2-0.9,0.2    C112.7,60.2,112.5,60.2,112.2,60.2 M112.2,50c-0.5,0-1,0.1-1.5,0.3c-0.4,0.2-0.8,0.5-1.1,0.8c-0.3,0.3-0.6,0.8-0.7,1.2    c-0.2,0.5-0.3,1-0.3,1.5c0,0.5,0.1,1,0.3,1.5c0.2,0.5,0.4,0.9,0.7,1.2c0.3,0.3,0.7,0.6,1.1,0.8c0.4,0.2,0.9,0.3,1.5,0.3    c0.6,0,1.1-0.1,1.7-0.3c0.5-0.2,1-0.5,1.3-0.9v-5.3c-0.4-0.4-0.8-0.7-1.3-0.9C113.3,50.1,112.8,50,112.2,50"/>
		<path class="st1" d="M119.5,47.5h2.6v12.5h-2.6V47.5z M120.8,46.4c-0.2,0-0.5,0-0.7-0.1c-0.2-0.1-0.4-0.2-0.6-0.4    c-0.2-0.2-0.3-0.3-0.4-0.6c-0.1-0.2-0.1-0.4-0.1-0.7c0-0.2,0-0.5,0.1-0.7c0.1-0.2,0.2-0.4,0.4-0.6c0.2-0.2,0.3-0.3,0.6-0.4    c0.2-0.1,0.4-0.1,0.7-0.1c0.2,0,0.5,0,0.7,0.1c0.2,0.1,0.4,0.2,0.6,0.4c0.2,0.2,0.3,0.3,0.4,0.6c0.1,0.2,0.1,0.4,0.1,0.7    c0,0.2,0,0.5-0.1,0.7c-0.1,0.2-0.2,0.4-0.4,0.6c-0.2,0.2-0.3,0.3-0.6,0.4C121.3,46.3,121.1,46.4,120.8,46.4"/>
		<path class="st1" d="M130.2,60.2c-0.9,0-1.7-0.2-2.5-0.5c-0.8-0.3-1.5-0.8-2-1.4c-0.6-0.6-1-1.3-1.4-2c-0.3-0.8-0.5-1.6-0.5-2.5    c0-0.9,0.2-1.7,0.5-2.5c0.3-0.8,0.8-1.5,1.4-2c0.6-0.6,1.3-1,2-1.4c0.8-0.3,1.6-0.5,2.5-0.5c0.9,0,1.8,0.2,2.6,0.6    c0.8,0.4,1.5,0.9,2.1,1.5l0.1,0.1l-0.6,0.6c-0.2,0.2-0.4,0.3-0.6,0.4c-0.2,0.1-0.5,0.1-0.8,0.1c-0.3,0-0.7-0.1-0.9-0.3    c-0.3-0.2-0.6-0.3-0.9-0.4c-0.3-0.1-0.7-0.1-1-0.1c-0.5,0-1,0.1-1.5,0.3c-0.5,0.2-0.9,0.5-1.2,0.8c-0.3,0.3-0.6,0.8-0.8,1.2    c-0.2,0.5-0.3,1-0.3,1.5c0,0.5,0.1,1,0.3,1.5c0.2,0.5,0.5,0.9,0.8,1.2c0.3,0.3,0.8,0.6,1.2,0.8c0.5,0.2,1,0.3,1.5,0.3    c0.3,0,0.7,0,1-0.1c0.3-0.1,0.6-0.2,0.9-0.4c0.3-0.2,0.7-0.3,1-0.3c0.3,0,0.5,0.1,0.7,0.2c0.2,0.1,0.4,0.2,0.6,0.4l0.6,0.6    l-0.1,0.1c-0.6,0.6-1.3,1.1-2.1,1.5C132,60,131.2,60.2,130.2,60.2"/>
		<path class="st1" d="M140.6,60.2c-0.6,0-1.2-0.1-1.7-0.3c-0.5-0.2-1-0.4-1.4-0.8c-0.4-0.3-0.7-0.7-0.9-1.2c-0.2-0.5-0.3-1-0.3-1.6    c0-0.6,0.1-1.2,0.4-1.7c0.2-0.5,0.6-0.9,1.1-1.3c0.5-0.4,1.1-0.6,1.8-0.8c0.7-0.2,1.6-0.3,2.5-0.3c0.3,0,0.5,0,0.8,0    c0.2,0,0.5,0,0.7,0c0.2,0,0.4,0,0.5,0c0,0,0,0,0,0c0-0.5-0.1-0.9-0.2-1.2c-0.1-0.3-0.3-0.6-0.5-0.8c-0.2-0.2-0.4-0.3-0.7-0.4    c-0.3-0.1-0.6-0.1-0.8-0.1c-0.4,0-0.6,0-0.8,0.1c-0.2,0.1-0.4,0.1-0.5,0.2c-0.2,0.1-0.3,0.2-0.5,0.2c-0.2,0.1-0.4,0.1-0.7,0.1    c-0.2,0-0.4,0-0.6-0.1c-0.2-0.1-0.4-0.2-0.6-0.3l-0.8-0.6l0.1-0.1c0.1-0.1,0.2-0.2,0.3-0.4c0.1-0.1,0.2-0.2,0.4-0.3    c0.1-0.1,0.3-0.3,0.5-0.4c0.5-0.3,1-0.5,1.5-0.7c0.5-0.2,1.2-0.2,1.8-0.2c0.7,0,1.3,0.1,1.8,0.3c0.5,0.2,1,0.4,1.3,0.7    c0.4,0.3,0.7,0.7,0.9,1.1c0.2,0.4,0.4,0.9,0.5,1.3c0.1,0.5,0.2,1,0.3,1.5c0,0.5,0.1,1,0.1,1.6v6.2h-2.1l0-0.1    c-0.1-0.1-0.2-0.3-0.3-0.5c-0.1-0.2-0.1-0.4-0.1-0.5c-0.2,0.1-0.3,0.3-0.5,0.4c-0.3,0.2-0.6,0.3-1,0.5c-0.3,0.1-0.7,0.2-1,0.3    C141.2,60.2,140.9,60.2,140.6,60.2 M142.1,54.8c-0.5,0-0.9,0-1.3,0.1c-0.4,0.1-0.7,0.2-1,0.3c-0.3,0.1-0.5,0.3-0.7,0.5    c-0.2,0.2-0.2,0.4-0.2,0.7c0,0.2,0,0.4,0.1,0.6c0.1,0.2,0.2,0.3,0.3,0.4c0.2,0.1,0.3,0.2,0.5,0.2c0.2,0.1,0.5,0.1,0.7,0.1    c0.3,0,0.5,0,0.8-0.1c0.3-0.1,0.6-0.1,0.9-0.2c0.3-0.1,0.6-0.2,0.9-0.3c0.3-0.1,0.5-0.3,0.8-0.4v-1.8c0,0-0.6,0-0.6,0    c-0.2,0-0.4,0-0.7,0C142.6,54.8,142.4,54.8,142.1,54.8"/>
		<path class="st1" d="M152.5,60.2c-0.4,0-0.9-0.1-1.3-0.2c-0.4-0.1-0.8-0.3-1.2-0.5c-0.4-0.2-0.7-0.5-1-0.8    c-0.3-0.3-0.5-0.7-0.7-1.1l-0.1-0.1l0.8-0.4c0.2-0.1,0.3-0.1,0.5-0.2c0.2-0.1,0.3-0.1,0.5-0.1c0.2,0,0.4,0,0.6,0.1    c0.2,0.1,0.4,0.2,0.7,0.4c0.2,0.1,0.3,0.2,0.5,0.2c0.2,0,0.4,0.1,0.6,0.1c0.2,0,0.4,0,0.7-0.1c0.2-0.1,0.4-0.2,0.6-0.3    c0.2-0.1,0.3-0.3,0.4-0.5c0.1-0.2,0.2-0.4,0.2-0.7c0-0.2,0-0.4-0.1-0.5c-0.1-0.1-0.2-0.2-0.3-0.4c-0.1-0.1-0.4-0.2-0.6-0.4    c-0.3-0.1-0.6-0.2-1-0.4c-0.4-0.1-0.9-0.3-1.3-0.5c-0.4-0.2-0.8-0.4-1.1-0.7c-0.3-0.3-0.6-0.6-0.8-1c-0.2-0.4-0.3-0.9-0.3-1.5    c0-0.5,0.1-1,0.3-1.4c0.2-0.4,0.5-0.8,0.9-1.1c0.4-0.3,0.8-0.5,1.2-0.7c0.5-0.2,0.9-0.3,1.4-0.3c0.5,0,1,0.1,1.4,0.3    c0.4,0.2,0.8,0.4,1,0.6c0.3,0.2,0.5,0.4,0.7,0.6c0.2,0.2,0.4,0.5,0.4,0.5l-0.7,0.6c-0.4,0.3-0.8,0.5-1.2,0.5c-0.2,0-0.4,0-0.6-0.1    c-0.2-0.1-0.4-0.2-0.6-0.3c-0.1-0.1-0.3-0.1-0.4-0.1c-0.3,0-0.5,0-0.7,0.1c-0.2,0.1-0.3,0.2-0.4,0.3c-0.1,0.1-0.2,0.2-0.2,0.3    c0,0.1-0.1,0.2-0.1,0.3c0,0.2,0,0.3,0.1,0.5c0.1,0.1,0.2,0.3,0.4,0.4c0.2,0.1,0.4,0.2,0.6,0.3c0.2,0.1,0.5,0.2,0.7,0.2    c0.5,0.2,0.9,0.3,1.4,0.5c0.4,0.2,0.8,0.5,1.2,0.8c0.4,0.3,0.6,0.7,0.8,1.1c0.2,0.4,0.3,1,0.3,1.6c0,0.5-0.1,1.1-0.3,1.6    c-0.2,0.5-0.5,0.9-0.9,1.3c-0.4,0.4-0.8,0.7-1.4,0.9C153.8,60.1,153.2,60.2,152.5,60.2"/>
	</g>
	<g>
		<path class="st1" d="M72.9,78.3h-1.1l1.3-8.5h2.6c0.3,0,0.6,0.1,1,0.2c0.3,0.1,0.6,0.3,0.8,0.5c0.2,0.2,0.4,0.5,0.5,0.8    c0.1,0.3,0.1,0.7,0.1,1.1l-0.1,0.6c-0.1,0.4-0.2,0.8-0.4,1.1c-0.2,0.3-0.4,0.6-0.7,0.8c-0.3,0.2-0.6,0.4-0.9,0.5    c-0.3,0.1-0.7,0.2-1,0.2h-1.5L72.9,78.3z M73.5,74.4h1.4c0.2,0,0.5,0,0.7-0.1c0.2-0.1,0.4-0.2,0.6-0.3c0.2-0.1,0.3-0.3,0.4-0.5    c0.1-0.2,0.2-0.4,0.2-0.7l0.1-0.4c0-0.3,0-0.5,0-0.7c0-0.2-0.1-0.4-0.3-0.5c-0.1-0.1-0.3-0.2-0.5-0.3c-0.2-0.1-0.4-0.1-0.6-0.1H74    L73.5,74.4z"/>
		<path class="st1" d="M79,73.4c0.2-0.3,0.4-0.6,0.7-0.8c0.3-0.2,0.6-0.4,0.9-0.5c0.3-0.1,0.7-0.2,1.1-0.2c0.5,0,1,0,1.3,0.1    c0.4,0.1,0.7,0.2,0.9,0.3l-0.9,5.9h-0.9l0-0.7c-0.1,0.1-0.3,0.2-0.4,0.3c-0.2,0.1-0.3,0.2-0.5,0.3c-0.2,0.1-0.3,0.1-0.5,0.2    c-0.2,0-0.4,0.1-0.6,0.1c-0.3,0-0.5-0.1-0.8-0.2c-0.2-0.1-0.4-0.3-0.6-0.5c-0.2-0.2-0.3-0.5-0.4-0.8c-0.1-0.3-0.1-0.7,0-1.1    l0.2-1.4C78.7,74.1,78.8,73.7,79,73.4 M81.4,77.3c0.3-0.1,0.5-0.3,0.7-0.4l0.6-3.7c-0.2-0.1-0.3-0.1-0.5-0.1    c-0.2,0-0.4-0.1-0.7-0.1c-0.3,0-0.5,0-0.7,0.1c-0.2,0.1-0.4,0.2-0.5,0.3c-0.1,0.1-0.3,0.3-0.3,0.5c-0.1,0.2-0.1,0.4-0.2,0.7    l-0.2,1.3c0,0.2,0,0.5,0,0.7c0,0.2,0.1,0.4,0.1,0.5c0.1,0.1,0.2,0.2,0.3,0.3c0.1,0.1,0.3,0.1,0.6,0.1    C80.9,77.5,81.2,77.4,81.4,77.3"/>
		<path class="st1" d="M86,73.1c0.1-0.1,0.3-0.3,0.5-0.4c0.2-0.1,0.4-0.2,0.6-0.4c0.2-0.1,0.4-0.2,0.6-0.3c0.2-0.1,0.4-0.1,0.6-0.1    L88.1,73c-0.2,0-0.4,0-0.5,0.1c-0.2,0.1-0.4,0.1-0.6,0.2c-0.2,0.1-0.4,0.2-0.5,0.3c-0.2,0.1-0.3,0.2-0.5,0.4l-0.6,4.3h-1.1    l0.9-6.3h0.9L86,73.1z"/>
		<path class="st1" d="M89.1,73.4c0.2-0.3,0.4-0.6,0.7-0.8c0.3-0.2,0.6-0.4,0.9-0.5c0.3-0.1,0.7-0.2,1.1-0.2c0.5,0,1,0,1.3,0.1    c0.4,0.1,0.7,0.2,0.9,0.3l-0.9,5.9h-0.9l0-0.7c-0.1,0.1-0.3,0.2-0.4,0.3c-0.2,0.1-0.3,0.2-0.5,0.3c-0.2,0.1-0.3,0.1-0.5,0.2    c-0.2,0-0.4,0.1-0.6,0.1c-0.3,0-0.5-0.1-0.8-0.2c-0.2-0.1-0.4-0.3-0.6-0.5c-0.2-0.2-0.3-0.5-0.4-0.8c-0.1-0.3-0.1-0.7,0-1.1    l0.2-1.4C88.8,74.1,88.9,73.7,89.1,73.4 M91.5,77.3c0.3-0.1,0.5-0.3,0.7-0.4l0.6-3.7c-0.2-0.1-0.3-0.1-0.5-0.1    c-0.2,0-0.4-0.1-0.7-0.1c-0.3,0-0.5,0-0.7,0.1c-0.2,0.1-0.4,0.2-0.5,0.3c-0.1,0.1-0.3,0.3-0.3,0.5c-0.1,0.2-0.1,0.4-0.2,0.7    l-0.2,1.3c0,0.2,0,0.5,0,0.7c0,0.2,0.1,0.4,0.1,0.5c0.1,0.1,0.2,0.2,0.3,0.3c0.1,0.1,0.3,0.1,0.6,0.1    C90.9,77.5,91.2,77.4,91.5,77.3"/>
		<path class="st1" d="M101.3,78.4c-0.4,0.1-0.7,0.1-1.1,0.1c-0.4,0-0.7-0.1-1-0.2c-0.3-0.1-0.6-0.3-0.8-0.6    c-0.2-0.2-0.4-0.5-0.5-0.9c-0.1-0.3-0.1-0.7-0.1-1.2l0.5-3.1c0.1-0.5,0.2-0.9,0.4-1.3c0.2-0.4,0.5-0.7,0.8-0.9    c0.3-0.2,0.6-0.4,1-0.6c0.4-0.1,0.7-0.2,1.1-0.2c0.2,0,0.4,0,0.6,0c0.2,0,0.4,0.1,0.5,0.1c0.2,0,0.3,0.1,0.4,0.1    c0.1,0,0.2,0.1,0.2,0.1l-0.3,1c-0.1,0-0.1,0-0.2-0.1c-0.1,0-0.2-0.1-0.4-0.1c-0.1,0-0.3-0.1-0.5-0.1c-0.2,0-0.4,0-0.5,0    c-0.3,0-0.5,0-0.7,0.1c-0.2,0.1-0.4,0.2-0.6,0.4c-0.2,0.2-0.3,0.4-0.5,0.6c-0.1,0.2-0.2,0.5-0.3,0.8l-0.4,2.9c0,0.3,0,0.5,0,0.8    c0.1,0.2,0.2,0.4,0.3,0.6c0.1,0.2,0.3,0.3,0.6,0.4c0.2,0.1,0.5,0.1,0.8,0.1c0.2,0,0.4,0,0.5,0c0.2,0,0.3,0,0.5-0.1    c0.2,0,0.3-0.1,0.4-0.1c0.1,0,0.2-0.1,0.3-0.1l0,1C101.9,78.2,101.6,78.3,101.3,78.4"/>
		<path class="st1" d="M107.1,77.6c-0.4,0.3-0.7,0.5-1.1,0.6s-0.8,0.2-1.1,0.2c-0.5,0-0.9-0.1-1.1-0.4c-0.2-0.3-0.3-0.7-0.2-1.3    l0.7-4.7h1.1l-0.6,4.3c-0.1,0.3,0,0.6,0.1,0.8c0.1,0.2,0.3,0.3,0.6,0.3c0.2,0,0.5-0.1,0.8-0.2c0.3-0.1,0.6-0.3,1-0.5l0.7-4.7h1.1    l-0.9,6.3h-0.9L107.1,77.6z"/>
		<path class="st1" d="M110.2,78.3h-1.1l0.9-6.3h1.1L110.2,78.3z M110.4,69.7c0.1-0.1,0.3-0.2,0.6-0.2c0.2,0,0.3,0,0.4,0.1    c0.1,0.1,0.1,0.2,0.1,0.4c0,0.2-0.1,0.4-0.2,0.6c-0.1,0.1-0.3,0.2-0.6,0.2c-0.2,0-0.3,0-0.4-0.1c-0.1-0.1-0.1-0.2-0.1-0.4    C110.2,70.1,110.3,69.9,110.4,69.7"/>
		<path class="st1" d="M115.5,77.7c-0.1,0.1-0.3,0.2-0.4,0.3c-0.2,0.1-0.3,0.2-0.5,0.3c-0.2,0.1-0.3,0.1-0.5,0.2    c-0.2,0-0.4,0.1-0.6,0.1c-0.3,0-0.5-0.1-0.8-0.2c-0.2-0.1-0.4-0.3-0.6-0.5c-0.2-0.2-0.3-0.5-0.4-0.8c-0.1-0.3-0.1-0.7,0-1.1    l0.2-1.4c0.1-0.4,0.2-0.8,0.4-1.1c0.2-0.3,0.4-0.6,0.7-0.8c0.3-0.2,0.6-0.4,0.9-0.5c0.3-0.1,0.7-0.2,1.1-0.2c0.2,0,0.5,0,0.7,0.1    c0.2,0,0.4,0.1,0.6,0.2l0.4-2.9h1.1l-1.4,9.1h-0.9L115.5,77.7z M114.8,77.3c0.3-0.1,0.5-0.3,0.8-0.4l0.5-3.7    c-0.2-0.1-0.3-0.1-0.6-0.2c-0.2-0.1-0.4-0.1-0.7-0.1c-0.3,0-0.5,0-0.7,0.1c-0.2,0.1-0.4,0.2-0.5,0.3c-0.1,0.1-0.3,0.3-0.3,0.5    c-0.1,0.2-0.1,0.4-0.2,0.7l-0.2,1.3c0,0.2,0,0.5,0,0.7c0,0.2,0.1,0.4,0.1,0.5c0.1,0.1,0.2,0.2,0.3,0.3c0.1,0.1,0.3,0.1,0.6,0.1    C114.2,77.5,114.5,77.4,114.8,77.3"/>
		<path class="st1" d="M118.6,73.4c0.2-0.3,0.4-0.6,0.7-0.8c0.3-0.2,0.6-0.4,0.9-0.5c0.3-0.1,0.7-0.2,1.1-0.2c0.5,0,1,0,1.3,0.1    c0.4,0.1,0.7,0.2,0.9,0.3l-0.9,5.9h-0.9l0-0.7c-0.1,0.1-0.3,0.2-0.4,0.3c-0.2,0.1-0.3,0.2-0.5,0.3c-0.2,0.1-0.3,0.1-0.5,0.2    c-0.2,0-0.4,0.1-0.6,0.1c-0.3,0-0.5-0.1-0.8-0.2c-0.2-0.1-0.4-0.3-0.6-0.5c-0.2-0.2-0.3-0.5-0.4-0.8c-0.1-0.3-0.1-0.7,0-1.1    l0.2-1.4C118.3,74.1,118.4,73.7,118.6,73.4 M121,77.3c0.3-0.1,0.5-0.3,0.7-0.4l0.6-3.7c-0.2-0.1-0.3-0.1-0.5-0.1    c-0.2,0-0.4-0.1-0.7-0.1c-0.3,0-0.5,0-0.7,0.1c-0.2,0.1-0.4,0.2-0.5,0.3c-0.1,0.1-0.3,0.3-0.3,0.5c-0.1,0.2-0.1,0.4-0.2,0.7    l-0.2,1.3c0,0.2,0,0.5,0,0.7c0,0.2,0.1,0.4,0.1,0.5c0.1,0.1,0.2,0.2,0.3,0.3c0.1,0.1,0.3,0.1,0.6,0.1    C120.4,77.5,120.7,77.4,121,77.3"/>
		<path class="st1" d="M125.6,73.1c0.1-0.1,0.3-0.3,0.5-0.4c0.2-0.1,0.4-0.2,0.6-0.4c0.2-0.1,0.4-0.2,0.6-0.3    c0.2-0.1,0.4-0.1,0.6-0.1l-0.1,1.1c-0.2,0-0.4,0-0.5,0.1s-0.4,0.1-0.6,0.2c-0.2,0.1-0.4,0.2-0.5,0.3c-0.2,0.1-0.3,0.2-0.5,0.4    l-0.6,4.3h-1.1l0.9-6.3h0.9L125.6,73.1z"/>
		<path class="st1" d="M129.4,77c0,0.2,0,0.4,0.1,0.4c0.1,0.1,0.2,0.1,0.4,0.1c0.1,0,0.2,0,0.3,0c0.1,0,0.2,0,0.2,0l-0.1,0.9    c-0.1,0-0.2,0.1-0.4,0.1c-0.2,0-0.3,0-0.5,0c-0.4,0-0.7-0.1-0.9-0.3c-0.2-0.2-0.3-0.6-0.2-1.1l1.2-7.8h1.1L129.4,77z"/>
		<path class="st1" d="M132,73.3c0.2-0.3,0.4-0.6,0.7-0.8c0.3-0.2,0.6-0.4,0.9-0.5c0.3-0.1,0.7-0.2,1-0.2c0.3,0,0.7,0.1,1,0.2    c0.3,0.1,0.6,0.3,0.8,0.5c0.2,0.2,0.4,0.5,0.5,0.8c0.1,0.3,0.1,0.7,0,1.1l-0.2,1.6c-0.1,0.4-0.2,0.8-0.4,1.1    c-0.2,0.3-0.4,0.6-0.7,0.8c-0.3,0.2-0.6,0.4-0.9,0.5c-0.3,0.1-0.7,0.2-1,0.2c-0.3,0-0.7-0.1-1-0.2c-0.3-0.1-0.5-0.3-0.8-0.5    c-0.2-0.2-0.4-0.5-0.5-0.8c-0.1-0.3-0.1-0.7-0.1-1.1l0.2-1.6C131.6,74,131.8,73.6,132,73.3 M132.7,77.1c0.2,0.3,0.6,0.4,1,0.4    c0.5,0,0.9-0.1,1.2-0.4c0.3-0.3,0.5-0.7,0.6-1.2l0.2-1.4c0.1-0.5,0-0.9-0.2-1.2c-0.2-0.3-0.6-0.4-1-0.4c-0.5,0-0.9,0.1-1.2,0.4    c-0.3,0.3-0.5,0.7-0.6,1.2l-0.2,1.4C132.4,76.4,132.5,76.8,132.7,77.1"/>
		<path class="st1" d="M144.6,77.8c-0.5,0.5-1.3,0.7-2.3,0.7c-0.5,0-1,0-1.4-0.1c-0.4-0.1-0.7-0.2-0.9-0.3l0.3-1    c0.1,0,0.2,0.1,0.4,0.1c0.1,0,0.3,0.1,0.5,0.1c0.2,0,0.3,0.1,0.5,0.1c0.2,0,0.4,0,0.6,0c0.3,0,0.6,0,0.8-0.1    c0.2,0,0.5-0.1,0.6-0.2c0.2-0.1,0.3-0.3,0.4-0.5c0.1-0.2,0.1-0.4,0.1-0.7c0-0.2,0-0.3-0.1-0.5c-0.1-0.1-0.1-0.2-0.2-0.3    c-0.1-0.1-0.2-0.2-0.4-0.3c-0.2-0.1-0.3-0.2-0.5-0.2l-1-0.3c-0.2-0.1-0.4-0.2-0.5-0.3c-0.1-0.1-0.3-0.3-0.4-0.4    c-0.1-0.2-0.2-0.3-0.2-0.5c0-0.2-0.1-0.4-0.1-0.6c0-0.4,0.1-0.8,0.2-1.1c0.1-0.3,0.4-0.6,0.6-0.9c0.3-0.2,0.6-0.4,0.9-0.6    c0.4-0.1,0.7-0.2,1.2-0.2c0.3,0,0.5,0,0.7,0s0.4,0.1,0.6,0.1c0.2,0,0.3,0.1,0.4,0.1c0.1,0,0.2,0.1,0.3,0.1l-0.3,1    c-0.2-0.1-0.5-0.1-0.8-0.2c-0.3-0.1-0.7-0.1-1-0.1c-0.3,0-0.5,0-0.7,0.1c-0.2,0.1-0.4,0.2-0.6,0.3c-0.2,0.1-0.3,0.3-0.4,0.5    c-0.1,0.2-0.1,0.4-0.1,0.7c0,0.3,0.1,0.5,0.2,0.7c0.1,0.2,0.4,0.3,0.7,0.4l1,0.3c0.5,0.2,0.9,0.4,1.1,0.7c0.3,0.3,0.4,0.7,0.4,1.3    C145.4,76.6,145.1,77.3,144.6,77.8"/>
		<path class="st1" d="M147.3,78.3h-1.1l0.9-6.3h1.1L147.3,78.3z M147.5,69.7c0.1-0.1,0.3-0.2,0.6-0.2c0.2,0,0.3,0,0.4,0.1    c0.1,0.1,0.1,0.2,0.1,0.4c0,0.2-0.1,0.4-0.2,0.6c-0.1,0.1-0.3,0.2-0.6,0.2c-0.2,0-0.3,0-0.4-0.1c-0.1-0.1-0.1-0.2-0.1-0.4    C147.3,70.1,147.4,69.9,147.5,69.7"/>
		<path class="st1" d="M149.4,73.4c0.2-0.3,0.4-0.6,0.7-0.8c0.3-0.2,0.5-0.4,0.9-0.5c0.3-0.1,0.6-0.2,1-0.2c0.3,0,0.6,0,0.8,0.1    c0.3,0.1,0.5,0.2,0.7,0.3c0.2,0.1,0.3,0.3,0.4,0.5c0.1,0.2,0.2,0.5,0.2,0.7c0,0.4-0.1,0.7-0.2,1c-0.1,0.3-0.3,0.5-0.6,0.6    c-0.3,0.2-0.6,0.3-0.9,0.3c-0.4,0.1-0.8,0.1-1.2,0.1c-0.2,0-0.4,0-0.6,0c-0.2,0-0.4,0-0.6-0.1l0,0.2c-0.1,0.5,0,0.9,0.2,1.1    c0.2,0.3,0.6,0.4,1.1,0.4c0.2,0,0.5,0,0.7,0c0.2,0,0.4,0,0.5-0.1c0.2,0,0.3-0.1,0.4-0.1c0.1,0,0.2-0.1,0.3-0.1l0,1    c-0.1,0-0.2,0.1-0.3,0.1c-0.1,0-0.3,0.1-0.5,0.1c-0.2,0-0.4,0.1-0.6,0.1c-0.2,0-0.4,0-0.7,0c-0.4,0-0.7-0.1-1-0.2    c-0.3-0.1-0.6-0.3-0.8-0.5c-0.2-0.2-0.3-0.5-0.4-0.8c-0.1-0.3-0.1-0.7,0-1.1l0.2-1.4C149.1,74.1,149.2,73.7,149.4,73.4     M150.6,74.9c0.2,0,0.4,0,0.5,0c0.3,0,0.5,0,0.7,0c0.2,0,0.4-0.1,0.5-0.2c0.1-0.1,0.3-0.2,0.3-0.4c0.1-0.2,0.1-0.3,0.1-0.6    c0-0.3-0.1-0.5-0.3-0.6c-0.2-0.2-0.5-0.2-0.8-0.2c-0.5,0-0.8,0.1-1.1,0.4c-0.3,0.3-0.4,0.7-0.5,1.2l-0.1,0.3    C150.3,74.9,150.5,74.9,150.6,74.9"/>
		<path class="st1" d="M156.3,72.8c0.4-0.3,0.7-0.5,1.1-0.6c0.4-0.2,0.8-0.2,1.1-0.2c0.4,0,0.7,0.1,0.9,0.2c0.2,0.2,0.4,0.4,0.4,0.7    c0.4-0.3,0.7-0.5,1.1-0.7c0.4-0.2,0.8-0.3,1.2-0.3c0.5,0,0.9,0.1,1.1,0.4c0.2,0.3,0.3,0.7,0.2,1.3l-0.7,4.7h-1.1l0.6-4.3    c0-0.3,0-0.6-0.1-0.8c-0.1-0.2-0.3-0.3-0.6-0.3c-0.2,0-0.5,0.1-0.8,0.2c-0.3,0.1-0.6,0.3-0.9,0.5l-0.7,4.7h-1.1l0.7-4.3    c0.1-0.3,0-0.6-0.1-0.8c-0.1-0.2-0.3-0.3-0.6-0.3c-0.2,0-0.5,0.1-0.8,0.2c-0.3,0.1-0.6,0.3-0.9,0.5l-0.7,4.7h-1.1l0.9-6.3h0.9    L156.3,72.8z"/>
		<path class="st1" d="M165.9,72.7c0.1-0.1,0.3-0.2,0.4-0.3c0.2-0.1,0.3-0.2,0.5-0.3c0.2-0.1,0.3-0.1,0.5-0.2c0.2,0,0.4-0.1,0.6-0.1    c0.3,0,0.5,0.1,0.7,0.2c0.2,0.1,0.4,0.3,0.6,0.5c0.2,0.2,0.3,0.5,0.4,0.8c0.1,0.3,0.1,0.7,0,1.1l-0.2,1.4    c-0.1,0.4-0.2,0.8-0.4,1.1c-0.2,0.3-0.4,0.6-0.7,0.8c-0.3,0.2-0.6,0.4-0.9,0.5c-0.3,0.1-0.7,0.2-1.1,0.2c-0.2,0-0.5,0-0.7-0.1    c-0.2,0-0.4-0.1-0.6-0.2l-0.4,2.9h-1.1l1.4-9.1h0.9L165.9,72.7z M166.6,73.1c-0.3,0.1-0.5,0.3-0.8,0.4l-0.5,3.7    c0.2,0.1,0.3,0.1,0.6,0.2c0.2,0.1,0.4,0.1,0.7,0.1c0.3,0,0.5,0,0.7-0.1c0.2-0.1,0.4-0.2,0.5-0.3c0.1-0.1,0.3-0.3,0.3-0.5    c0.1-0.2,0.1-0.4,0.2-0.7l0.2-1.3c0-0.2,0-0.5,0-0.7c0-0.2-0.1-0.4-0.1-0.5c-0.1-0.1-0.2-0.2-0.3-0.3c-0.2-0.1-0.3-0.1-0.6-0.1    C167.2,72.9,166.9,73,166.6,73.1"/>
		<path class="st1" d="M172,73.1c0.1-0.1,0.3-0.3,0.5-0.4c0.2-0.1,0.4-0.2,0.6-0.4c0.2-0.1,0.4-0.2,0.6-0.3c0.2-0.1,0.4-0.1,0.6-0.1    l-0.1,1.1c-0.2,0-0.4,0-0.5,0.1c-0.2,0.1-0.4,0.1-0.6,0.2c-0.2,0.1-0.4,0.2-0.5,0.3c-0.2,0.1-0.3,0.2-0.5,0.4l-0.6,4.3h-1.1    l0.9-6.3h0.9L172,73.1z"/>
		<path class="st1" d="M175.1,73.4c0.2-0.3,0.4-0.6,0.7-0.8c0.3-0.2,0.5-0.4,0.9-0.5c0.3-0.1,0.6-0.2,1-0.2c0.3,0,0.6,0,0.8,0.1    c0.3,0.1,0.5,0.2,0.7,0.3c0.2,0.1,0.3,0.3,0.4,0.5c0.1,0.2,0.2,0.5,0.2,0.7c0,0.4-0.1,0.7-0.2,1c-0.1,0.3-0.3,0.5-0.6,0.6    c-0.3,0.2-0.6,0.3-0.9,0.3c-0.4,0.1-0.8,0.1-1.2,0.1c-0.2,0-0.4,0-0.6,0c-0.2,0-0.4,0-0.6-0.1l0,0.2c-0.1,0.5,0,0.9,0.2,1.1    c0.2,0.3,0.6,0.4,1.1,0.4c0.2,0,0.5,0,0.7,0c0.2,0,0.4,0,0.5-0.1c0.2,0,0.3-0.1,0.4-0.1c0.1,0,0.2-0.1,0.3-0.1l0,1    c-0.1,0-0.2,0.1-0.3,0.1c-0.1,0-0.3,0.1-0.5,0.1c-0.2,0-0.4,0.1-0.6,0.1c-0.2,0-0.4,0-0.7,0c-0.4,0-0.7-0.1-1-0.2    c-0.3-0.1-0.6-0.3-0.8-0.5c-0.2-0.2-0.3-0.5-0.4-0.8c-0.1-0.3-0.1-0.7,0-1.1l0.2-1.4C174.8,74.1,174.9,73.7,175.1,73.4     M176.3,74.9c0.2,0,0.4,0,0.5,0c0.3,0,0.5,0,0.7,0c0.2,0,0.4-0.1,0.5-0.2c0.2-0.1,0.3-0.2,0.3-0.4c0.1-0.2,0.1-0.3,0.1-0.6    c0-0.3-0.1-0.5-0.3-0.6c-0.2-0.2-0.5-0.2-0.8-0.2c-0.5,0-0.8,0.1-1.1,0.4c-0.3,0.3-0.4,0.7-0.5,1.2l-0.1,0.3    C175.9,74.9,176.1,74.9,176.3,74.9"/>
	</g>
	<path class="st2" d="M23,15.5"/>
	
		<ellipse transform="matrix(0.9995 -3.062359e-02 3.062359e-02 0.9995 -1.591 1.2974)" class="st0" cx="41.6" cy="52.6" rx="1.3" ry="1.3"/>
	<polygon class="st1" points="23,15.5 23,15.5 23,15.5  "/>
	<path class="st0" d="M57.9,29c0-16-13-29-29-29C13,0,0,13,0,29c0,11.4,6.6,21.3,16.2,26c1.4,0.7,3,1.1,4.6,1.1c2.8,0,5.4-1.1,7.3-3   c2-2,3-4.6,3-7.3v-0.5h0.5v-2.7c5.5-2.4,8.9-6.1,10.8-8.9l0.5-0.7l-0.7-0.5c0.2-0.3,0.4-0.7,0.6-1c1.8-3.1,2.7-5.9,2.7-8.2   c0-5.5-4.6-10-10.1-10c-0.4,0-0.8,0-1.2,0.1c0,0-0.1,0-0.1-0.1C34,13.1,33.8,13,33.6,13c-0.5,0-0.9,0.2-1.2,0.6c-0.1,0-0.2,0-0.4,0   c-1,0-1.9,0.8-1.9,1.9c0,1,0.8,1.9,1.9,1.9c0.7,0,1.4-0.4,1.7-1.1c0.5,0,1-0.3,1.2-0.8c0.2,0,0.4,0,0.7,0c2.2,0,4.3,0.9,5.8,2.5   c2,2.2,2.5,5.3,1.4,8.2c-0.7,1.7-1.4,3.4-2.4,5l-0.6-0.4l-0.5,0.7c-1.7,2.5-4.9,5.9-10.3,8l-0.1,0l-0.1,0c-5.3-2.1-8.5-5.5-10.2-8   l-0.5-0.7l-0.6,0.4c-0.2-0.4-0.5-0.7-0.7-1.1c-0.6-1.1-1-2-1.4-3l-0.2-0.4c-0.3-0.9-0.6-1.7-0.7-2.6c-0.2-2.2,0.5-4.2,2-5.9   c1.5-1.7,3.6-2.6,5.8-2.6c0.2,0,0.4,0,0.6,0l0,0l0,0c0.3,0.4,0.7,0.7,1.2,0.8c0.3,0.6,1,1.1,1.7,1.1c1,0,1.9-0.8,1.9-1.9   c0-1-0.8-1.9-1.9-1.9c-0.1,0-0.2,0-0.3,0c-0.3-0.3-0.7-0.6-1.2-0.6c-0.2,0-0.4,0-0.6,0.1c-0.1,0-0.1,0-0.2,0.1c0,0,0,0,0,0   c-0.1,0-0.2,0-0.3,0c-0.3,0-0.6,0-0.9,0c-2.6,0-5,0.9-6.8,2.6c-2.1,2-3.3,4.8-3.2,7.7c0.1,2.2,1,4.9,2.7,7.8   c0.2,0.4,0.5,0.8,0.7,1.1l-0.7,0.4l0.5,0.7c1.9,2.7,5.3,6.4,10.8,8.9v2.7h0.5v0.5c0,1.6-0.6,3-1.7,4.2c-1.1,1.1-2.6,1.7-4.2,1.7   c-0.7,0-1.5-0.1-2.1-0.4C10.4,47.2,4.5,38.8,4.5,29c0-13.5,11-24.4,24.4-24.4c13.5,0,24.4,11,24.4,24.4c0,6.9-2.9,13.2-7.6,17.6   c0,0,0,0,0,0c-1.3-0.9-2.8-1.4-4.5-1.4c-4.1,0.1-7.2,3.5-7.1,7.6c0.1,4.1,3.5,7.2,7.6,7.1c4.1-0.1,7.2-3.5,7.1-7.6   c0-0.7-0.2-1.4-0.4-2.1c3.2-2.9,5.8-6.6,7.4-10.8c0,0,0,0,0-0.1c0.2-0.4,0.3-0.8,0.4-1.2c0-0.1,0.1-0.2,0.1-0.3   c0.1-0.4,0.2-0.7,0.3-1.1c0-0.1,0.1-0.3,0.1-0.4c0-0.1,0.1-0.3,0.1-0.4l0,0C57.6,33.8,57.9,31.4,57.9,29z M47.2,52.4   c0.1,3.1-2.4,5.8-5.5,5.9c-3.1,0.1-5.8-2.4-5.9-5.5c-0.1-3.1,2.4-5.8,5.5-5.9c1.1,0,2.2,0.3,3.1,0.8c-0.5,0.4-1,0.8-1.5,1.2   c-0.5-0.2-1-0.3-1.5-0.3c-2.2,0.1-3.9,1.9-3.8,4.1c0.1,2.2,1.9,3.9,4.1,3.8c2.1-0.1,3.7-1.7,3.8-3.8c0.6-0.4,1.1-0.8,1.6-1.2   C47.2,51.8,47.2,52.1,47.2,52.4z M43.8,52.5c0,1.3-1,2.3-2.2,2.3c-1.3,0-2.3-1-2.3-2.2c0-1.3,1-2.3,2.2-2.4   C42.7,50.3,43.8,51.3,43.8,52.5z"/>
	<polyline class="st2" points="31.2,46 26.7,45.4 26.7,45.1 31.2,45.1  "/>
	<path class="st2" d="M17.2,30.6l-1.6,1.8l0,0l1.9-1.3C17.4,30.9,17.3,30.8,17.2,30.6z"/>
	<polygon class="st2" points="40.5,31.1 40.5,31.1 42.3,32.4 42.7,31.9  "/>
	<path class="st2" d="M45.8,46.6c0,0-0.4,0.4-0.6,0.5c-0.2,0.2-0.7,0.6-0.7,0.6l0.8-1.5c0,0,0.2,0.1,0.3,0.2   C45.6,46.5,45.8,46.6,45.8,46.6z"/>
</g>
</svg>